{
	"asset":{
		"generator":"Khronos glTF Blender I/O v3.6.27",
		"version":"2.0"
	},
	"scene":0,
	"scenes":[
		{
			"name":"Scene",
			"nodes":[
				0,
				1,
				2,
				3,
				4,
				5,
				6,
				7,
				8,
				9,
				10,
				11,
				12,
				13,
				14,
				15,
				16,
				17,
				25
			]
		}
	],
	"nodes":[
		{
			"name":"leaf_001.014",
			"rotation":[
				0.049051184207201004,
				0.0370783694088459,
				0.3898232579231262,
				0.9188346862792969
			],
			"scale":[
				86.86285400390625,
				86.86285400390625,
				86.86283874511719
			],
			"translation":[
				43.68202209472656,
				37.284297943115234,
				2.426624298095703
			]
		},
		{
			"name":"leaf_002.011",
			"rotation":[
				0.02632714994251728,
				0.00788863655179739,
				0.1771087795495987,
				0.9838075041770935
			],
			"scale":[
				88.34857177734375,
				88.34857177734375,
				88.34857177734375
			],
			"translation":[
				133.33831787109375,
				42.94431686401367,
				1.5733503103256226
			]
		},
		{
			"name":"leaf_006.009",
			"rotation":[
				0.0073004113510251045,
				-0.04137875884771347,
				0.42959290742874146,
				0.9020445942878723
			],
			"scale":[
				91.47296905517578,
				91.47296142578125,
				91.47296142578125
			],
			"translation":[
				98.30304718017578,
				60.837928771972656,
				1.1378579139709473
			]
		},
		{
			"name":"leaf_001.078",
			"rotation":[
				-0.023439794778823853,
				0.020257772877812386,
				0.3213798701763153,
				0.9464434385299683
			],
			"scale":[
				87.66331481933594,
				87.663330078125,
				87.66329956054688
			],
			"translation":[
				133.61936950683594,
				-140.78074645996094,
				5.051713943481445
			]
		},
		{
			"name":"leaf_003.086",
			"rotation":[
				0.0073993313126266,
				-0.025194209069013596,
				0.5407354831695557,
				0.8407827615737915
			],
			"scale":[
				86.88127136230469,
				86.88128662109375,
				86.88126373291016
			],
			"translation":[
				85.34896087646484,
				-176.62246704101562,
				6.2889723777771
			]
		},
		{
			"name":"leaf_005.083",
			"rotation":[
				-0.007433074060827494,
				-0.01302600372582674,
				0.5299689173698425,
				0.8478844165802002
			],
			"scale":[
				95.66716766357422,
				95.66716766357422,
				95.66716003417969
			],
			"translation":[
				11.809748649597168,
				-155.8350067138672,
				4.781131267547607
			]
		},
		{
			"name":"leaf_005.085",
			"rotation":[
				0.0017102300189435482,
				-0.017222633585333824,
				0.5355197787284851,
				0.8443453311920166
			],
			"scale":[
				99.18801879882812,
				99.18801879882812,
				99.18801879882812
			],
			"translation":[
				21.77610206604004,
				-109.5511474609375,
				4.539672374725342
			]
		},
		{
			"name":"leaf_003.134",
			"rotation":[
				-0.035048991441726685,
				0.016360480338335037,
				0.06507917493581772,
				0.9971301555633545
			],
			"scale":[
				91.35713195800781,
				91.35711669921875,
				91.35712432861328
			],
			"translation":[
				-19.444332122802734,
				-112.11626434326172,
				4.177496433258057
			]
		},
		{
			"name":"leaf_002.156",
			"rotation":[
				0.0083094397559762,
				0.025356056168675423,
				0.37703830003738403,
				0.9258132576942444
			],
			"scale":[
				85.85130310058594,
				85.851318359375,
				85.85130310058594
			],
			"translation":[
				-141.390380859375,
				-127.40951538085938,
				5.460807800292969
			]
		},
		{
			"name":"leaf_001.219",
			"rotation":[
				-0.003273962065577507,
				-0.017094692215323448,
				0.3622497320175171,
				0.9319185614585876
			],
			"scale":[
				83.9508285522461,
				83.95083618164062,
				83.95083618164062
			],
			"translation":[
				171.6847381591797,
				-143.15919494628906,
				4.432126045227051
			]
		},
		{
			"name":"leaf_004.122",
			"rotation":[
				0.035957369953393936,
				0.011937219649553299,
				0.09846322238445282,
				0.9944192171096802
			],
			"scale":[
				86.14979553222656,
				86.1498031616211,
				86.1498031616211
			],
			"translation":[
				157.52255249023438,
				-92.09916687011719,
				4.288391590118408
			]
		},
		{
			"name":"leaf_005.131",
			"rotation":[
				-0.0024697338230907917,
				0.03954479843378067,
				0.43941086530685425,
				0.8974119424819946
			],
			"scale":[
				99.28943634033203,
				99.28943634033203,
				99.28943634033203
			],
			"translation":[
				145.8631134033203,
				-9.581697463989258,
				4.303714752197266
			]
		},
		{
			"name":"leaf_000.131",
			"rotation":[
				0.03700651228427887,
				-0.009388267993927002,
				0.3876558840274811,
				0.9210131764411926
			],
			"scale":[
				99.31916809082031,
				99.31916809082031,
				99.31916046142578
			],
			"translation":[
				-75.4214859008789,
				-15.218496322631836,
				4.256843566894531
			]
		},
		{
			"name":"leaf_003.211",
			"rotation":[
				-0.005746674723923206,
				-0.01570054516196251,
				0.07470783591270447,
				0.9970653057098389
			],
			"scale":[
				99.76057434082031,
				99.76057434082031,
				99.76056671142578
			],
			"translation":[
				-65.67518615722656,
				-12.575923919677734,
				4.241959095001221
			]
		},
		{
			"name":"leaf_002.214",
			"rotation":[
				0.0012656484032049775,
				0.0052357506938278675,
				0.24751316010951996,
				0.9688695669174194
			],
			"scale":[
				95.38321685791016,
				95.38322448730469,
				95.38320922851562
			],
			"translation":[
				-176.21217346191406,
				-21.67034149169922,
				4.31559419631958
			]
		},
		{
			"name":"leaf_006.121",
			"rotation":[
				-0.01896589621901512,
				0.01200565230101347,
				0.27727875113487244,
				0.9605273008346558
			],
			"scale":[
				94.87279510498047,
				94.87279510498047,
				94.872802734375
			],
			"translation":[
				-177.5758056640625,
				-47.063232421875,
				4.433856964111328
			]
		},
		{
			"name":"leaf_002.237",
			"rotation":[
				-0.021942641586065292,
				-0.09233320504426956,
				0.2822627127170563,
				0.9546312689781189
			],
			"scale":[
				88.34854888916016,
				88.34855651855469,
				88.34854888916016
			],
			"translation":[
				-134.29183959960938,
				-82.35137939453125,
				7.347776889801025
			]
		},
		{
			"name":"leaf_002.238",
			"rotation":[
				-0.11237654834985733,
				-0.06965244561433792,
				0.5759362578392029,
				0.8067325949668884
			],
			"scale":[
				85.93895721435547,
				85.93895721435547,
				85.93894958496094
			],
			"translation":[
				-134.01187133789062,
				-81.50740814208984,
				7.344959735870361
			]
		},
		{
			"mesh":0,
			"name":"Object_2",
			"translation":[
				0,
				0,
				-2.473592758178711e-06
			]
		},
		{
			"mesh":1,
			"name":"Object_3",
			"translation":[
				0,
				0,
				-2.473592758178711e-06
			]
		},
		{
			"mesh":2,
			"name":"Object_4",
			"translation":[
				0,
				0,
				-2.473592758178711e-06
			]
		},
		{
			"mesh":3,
			"name":"Object_5",
			"translation":[
				0,
				0,
				-2.473592758178711e-06
			]
		},
		{
			"mesh":4,
			"name":"Object_6",
			"translation":[
				0,
				0,
				-2.473592758178711e-06
			]
		},
		{
			"mesh":5,
			"name":"Object_7",
			"translation":[
				0,
				0,
				-2.473592758178711e-06
			]
		},
		{
			"children":[
				18,
				19,
				20,
				21,
				22,
				23
			],
			"name":"Tree41.obj.cleaner.materialmerger.gles",
			"translation":[
				0,
				0,
				-2.473592758178711e-06
			]
		},
		{
			"children":[
				24
			],
			"name":"Sketchfab_model",
			"rotation":[
				0.9861927032470703,
				-0.11604069918394089,
				0.0011857901699841022,
				0.11814036220312119
			],
			"translation":[
				-4.852949619293213,
				-21.3839054107666,
				24.765954971313477
			]
		}
	],
	"materials":[
		{
			"alphaCutoff":0.7482850551605225,
			"alphaMode":"MASK",
			"doubleSided":true,
			"name":"Tree41_Material_u1_v1",
			"pbrMetallicRoughness":{
				"baseColorTexture":{
					"index":0
				},
				"metallicFactor":0,
				"roughnessFactor":0.6000000238418579
			}
		}
	],
	"meshes":[
		{
			"name":"Object_0",
			"primitives":[
				{
					"attributes":{
						"POSITION":0,
						"NORMAL":1,
						"TEXCOORD_0":2
					},
					"indices":3,
					"material":0
				}
			]
		},
		{
			"name":"Object_1",
			"primitives":[
				{
					"attributes":{
						"POSITION":4,
						"NORMAL":5,
						"TEXCOORD_0":6
					},
					"indices":7,
					"material":0
				}
			]
		},
		{
			"name":"Object_2",
			"primitives":[
				{
					"attributes":{
						"POSITION":8,
						"NORMAL":9,
						"TEXCOORD_0":10
					},
					"indices":11,
					"material":0
				}
			]
		},
		{
			"name":"Object_3",
			"primitives":[
				{
					"attributes":{
						"POSITION":12,
						"NORMAL":13,
						"TEXCOORD_0":14
					},
					"indices":15,
					"material":0
				}
			]
		},
		{
			"name":"Object_4",
			"primitives":[
				{
					"attributes":{
						"POSITION":16,
						"NORMAL":17,
						"TEXCOORD_0":18
					},
					"indices":19,
					"material":0
				}
			]
		},
		{
			"name":"Object_5",
			"primitives":[
				{
					"attributes":{
						"POSITION":20,
						"NORMAL":21,
						"TEXCOORD_0":22
					},
					"indices":23,
					"material":0
				}
			]
		}
	],
	"textures":[
		{
			"sampler":0,
			"source":0
		}
	],
	"images":[
		{
			"mimeType":"image/png",
			"name":"Image_0",
			"uri":"Image_0.png"
		}
	],
	"accessors":[
		{
			"bufferView":0,
			"componentType":5126,
			"count":65681,
			"max":[
				17.780908584594727,
				-1.5783973932266235,
				13.3895902633667
			],
			"min":[
				-14.579984664916992,
				-37.22450256347656,
				-12.019123077392578
			],
			"type":"VEC3"
		},
		{
			"bufferView":1,
			"componentType":5126,
			"count":65681,
			"type":"VEC3"
		},
		{
			"bufferView":2,
			"componentType":5126,
			"count":65681,
			"type":"VEC2"
		},
		{
			"bufferView":3,
			"componentType":5125,
			"count":255018,
			"type":"SCALAR"
		},
		{
			"bufferView":4,
			"componentType":5126,
			"count":65736,
			"max":[
				12.076438903808594,
				-2.42769455909729,
				10.228824615478516
			],
			"min":[
				-12.813547134399414,
				-41.48114776611328,
				-13.389331817626953
			],
			"type":"VEC3"
		},
		{
			"bufferView":5,
			"componentType":5126,
			"count":65736,
			"type":"VEC3"
		},
		{
			"bufferView":6,
			"componentType":5126,
			"count":65736,
			"type":"VEC2"
		},
		{
			"bufferView":7,
			"componentType":5125,
			"count":217650,
			"type":"SCALAR"
		},
		{
			"bufferView":8,
			"componentType":5126,
			"count":65709,
			"max":[
				18.703861236572266,
				-1.0195667743682861,
				11.259626388549805
			],
			"min":[
				-12.055536270141602,
				-27.416589736938477,
				-13.455341339111328
			],
			"type":"VEC3"
		},
		{
			"bufferView":9,
			"componentType":5126,
			"count":65709,
			"type":"VEC3"
		},
		{
			"bufferView":10,
			"componentType":5126,
			"count":65709,
			"type":"VEC2"
		},
		{
			"bufferView":11,
			"componentType":5125,
			"count":208578,
			"type":"SCALAR"
		},
		{
			"bufferView":12,
			"componentType":5126,
			"count":65808,
			"max":[
				10.68589973449707,
				-1.230700135231018,
				17.602069854736328
			],
			"min":[
				-8.847379684448242,
				-41.48114776611328,
				-12.605123519897461
			],
			"type":"VEC3"
		},
		{
			"bufferView":13,
			"componentType":5126,
			"count":65808,
			"type":"VEC3"
		},
		{
			"bufferView":14,
			"componentType":5126,
			"count":65808,
			"type":"VEC2"
		},
		{
			"bufferView":15,
			"componentType":5125,
			"count":187527,
			"type":"SCALAR"
		},
		{
			"bufferView":16,
			"componentType":5126,
			"count":65718,
			"max":[
				10.697976112365723,
				-6.015501976013184,
				15.250094413757324
			],
			"min":[
				-14.833396911621094,
				-38.144287109375,
				-18.323944091796875
			],
			"type":"VEC3"
		},
		{
			"bufferView":17,
			"componentType":5126,
			"count":65718,
			"type":"VEC3"
		},
		{
			"bufferView":18,
			"componentType":5126,
			"count":65718,
			"type":"VEC2"
		},
		{
			"bufferView":19,
			"componentType":5125,
			"count":169056,
			"type":"SCALAR"
		},
		{
			"bufferView":20,
			"componentType":5126,
			"count":28616,
			"max":[
				10.691107749938965,
				-5.077505588531494,
				4.810082912445068
			],
			"min":[
				-9.795352935791016,
				-26.652263641357422,
				-20.426050186157227
			],
			"type":"VEC3"
		},
		{
			"bufferView":21,
			"componentType":5126,
			"count":28616,
			"type":"VEC3"
		},
		{
			"bufferView":22,
			"componentType":5126,
			"count":28616,
			"type":"VEC2"
		},
		{
			"bufferView":23,
			"componentType":5123,
			"count":70869,
			"type":"SCALAR"
		}
	],
	"bufferViews":[
		{
			"buffer":0,
			"byteLength":788172,
			"byteOffset":0,
			"target":34962
		},
		{
			"buffer":0,
			"byteLength":788172,
			"byteOffset":788172,
			"target":34962
		},
		{
			"buffer":0,
			"byteLength":525448,
			"byteOffset":1576344,
			"target":34962
		},
		{
			"buffer":0,
			"byteLength":1020072,
			"byteOffset":2101792,
			"target":34963
		},
		{
			"buffer":0,
			"byteLength":788832,
			"byteOffset":3121864,
			"target":34962
		},
		{
			"buffer":0,
			"byteLength":788832,
			"byteOffset":3910696,
			"target":34962
		},
		{
			"buffer":0,
			"byteLength":525888,
			"byteOffset":4699528,
			"target":34962
		},
		{
			"buffer":0,
			"byteLength":870600,
			"byteOffset":5225416,
			"target":34963
		},
		{
			"buffer":0,
			"byteLength":788508,
			"byteOffset":6096016,
			"target":34962
		},
		{
			"buffer":0,
			"byteLength":788508,
			"byteOffset":6884524,
			"target":34962
		},
		{
			"buffer":0,
			"byteLength":525672,
			"byteOffset":7673032,
			"target":34962
		},
		{
			"buffer":0,
			"byteLength":834312,
			"byteOffset":8198704,
			"target":34963
		},
		{
			"buffer":0,
			"byteLength":789696,
			"byteOffset":9033016,
			"target":34962
		},
		{
			"buffer":0,
			"byteLength":789696,
			"byteOffset":9822712,
			"target":34962
		},
		{
			"buffer":0,
			"byteLength":526464,
			"byteOffset":10612408,
			"target":34962
		},
		{
			"buffer":0,
			"byteLength":750108,
			"byteOffset":11138872,
			"target":34963
		},
		{
			"buffer":0,
			"byteLength":788616,
			"byteOffset":11888980,
			"target":34962
		},
		{
			"buffer":0,
			"byteLength":788616,
			"byteOffset":12677596,
			"target":34962
		},
		{
			"buffer":0,
			"byteLength":525744,
			"byteOffset":13466212,
			"target":34962
		},
		{
			"buffer":0,
			"byteLength":676224,
			"byteOffset":13991956,
			"target":34963
		},
		{
			"buffer":0,
			"byteLength":343392,
			"byteOffset":14668180,
			"target":34962
		},
		{
			"buffer":0,
			"byteLength":343392,
			"byteOffset":15011572,
			"target":34962
		},
		{
			"buffer":0,
			"byteLength":228928,
			"byteOffset":15354964,
			"target":34962
		},
		{
			"buffer":0,
			"byteLength":141738,
			"byteOffset":15583892,
			"target":34963
		}
	],
	"samplers":[
		{
			"magFilter":9729,
			"minFilter":9987
		}
	],
	"buffers":[
		{
			"byteLength":15725632,
			"uri":"tree1.bin"
		}
	]
}
